<?xml version="1.0" encoding="UTF-8"?><svg id="Ebene_2" xmlns="http://www.w3.org/2000/svg" viewBox="0 0 512 512"><defs><style>.cls-1{fill:#101421;}.cls-2{fill:#f8ae41;}.cls-3{fill:#f5f2f0;}</style></defs><rect class="cls-3" x="-45.91" y="-62.56" width="573.32" height="666.38"/><path class="cls-1" d="M367.72,161.71l-52.6,52.6c8.33,11.79,13.24,26.16,13.24,41.7,0,39.97-32.4,72.36-72.36,72.36-15.53,0-29.91-4.91-41.7-13.24l-52.6,52.6c25.46,21.51,58.36,34.48,94.29,34.48,80.75,0,146.2-65.46,146.2-146.2,0-35.94-12.97-68.84-34.48-94.29Z"/><path class="cls-1" d="M183.64,256c0-39.97,32.4-72.36,72.36-72.36,17.24,0,33.07,6.04,45.5,16.1l52.36-52.36c-25.91-23.36-60.22-37.58-97.86-37.58-80.75,0-146.2,65.46-146.2,146.2,0,37.63,14.22,71.94,37.58,97.86l52.36-52.36c-10.07-12.43-16.1-28.26-16.1-45.5Z"/><path class="cls-2" d="M223.09,305.93c9.44,6.24,20.75,9.88,32.91,9.88,33.03,0,59.81-26.78,59.81-59.81,0-12.16-3.64-23.47-9.88-32.91l-82.85,82.85Z"/></svg>