<?xml version="1.0" encoding="UTF-8"?><svg id="Ebene_2" xmlns="http://www.w3.org/2000/svg" viewBox="40 195 430 122"><defs><style>.cls-1{fill:#101421;}.cls-2{fill:#f8ae41;}.cls-3{fill:#f5f2f0;}</style></defs><path class="cls-1" d="M140.77,222.32l-18.79,18.79c2.97,4.21,4.73,9.34,4.73,14.89,0,14.27-11.57,25.85-25.85,25.85-5.55,0-10.68-1.75-14.89-4.73l-18.79,18.79c9.09,7.68,20.84,12.31,33.68,12.31,28.84,0,52.22-23.38,52.22-52.22,0-12.83-4.63-24.58-12.31-33.68Z"/><path class="cls-1" d="M75.02,256c0-14.27,11.57-25.85,25.85-25.85,6.16,0,11.81,2.16,16.25,5.75l18.7-18.7c-9.25-8.34-21.51-13.42-34.95-13.42-28.84,0-52.22,23.38-52.22,52.22,0,13.44,5.08,25.69,13.42,34.95l18.7-18.7c-3.59-4.44-5.75-10.09-5.75-16.25Z"/><path class="cls-2" d="M89.11,273.83c3.37,2.23,7.41,3.53,11.76,3.53,11.8,0,21.36-9.56,21.36-21.36,0-4.34-1.3-8.38-3.53-11.76l-29.59,29.59Z"/><path class="cls-1" d="M175.94,268.56v12.11h-5.29v-35.12h5.29v2.38c2.55-3,5.53-4.49,8.91-4.49,4.02,0,7.44,1.42,10.28,4.25,2.83,2.83,4.25,6.26,4.25,10.28s-1.42,7.45-4.25,10.29c-2.83,2.84-6.26,4.26-10.28,4.26-3.39,0-6.36-1.32-8.91-3.96ZM175.94,255.92v4.11c.32,1.62,1.15,3.08,2.48,4.39,1.77,1.77,3.92,2.66,6.44,2.66s4.67-.89,6.45-2.67,2.67-3.93,2.67-6.45-.89-4.65-2.67-6.44c-1.78-1.79-3.93-2.68-6.45-2.68s-4.67.89-6.44,2.68c-1.33,1.31-2.15,2.78-2.48,4.39Z"/><path class="cls-1" d="M228.55,247.39v-1.84h5.31v26.3h-5.31v-3.29c-2.55,2.64-5.52,3.96-8.89,3.96-4.02,0-7.44-1.42-10.28-4.25-2.83-2.83-4.25-6.26-4.25-10.28s1.42-7.44,4.25-10.28c2.83-2.83,6.26-4.25,10.28-4.25,3.37,0,6.33,1.31,8.89,3.93ZM228.55,259.93v-3.88c-.31-1.65-1.12-3.15-2.45-4.49-1.79-1.77-3.93-2.66-6.44-2.66s-4.67.89-6.45,2.66c-1.78,1.77-2.67,3.92-2.67,6.44s.89,4.64,2.67,6.42,3.93,2.67,6.45,2.67,4.65-.89,6.44-2.66c1.33-1.34,2.15-2.84,2.45-4.5Z"/><path class="cls-1" d="M244.87,245.55v-9.86h5.29v9.86h4.72v5.29h-4.72v20.99h-5.29v-20.99h-4.72v-5.29h4.72Z"/><path class="cls-1" d="M281.85,262.82l5.29,1.89c-1.29,1.79-2.23,2.97-2.81,3.55-2.84,2.84-6.27,4.26-10.29,4.26s-7.42-1.42-10.27-4.26-4.27-6.27-4.27-10.29,1.42-7.45,4.27-10.29c2.84-2.84,6.26-4.27,10.27-4.27s7.45,1.42,10.29,4.27c.58.58,1.52,1.75,2.81,3.5l-5.29,1.94c-.68-.83-1.14-1.37-1.38-1.61-1.77-1.77-3.92-2.66-6.44-2.66s-4.64.89-6.42,2.67c-1.78,1.78-2.67,3.93-2.67,6.45s.89,4.64,2.67,6.42,3.92,2.67,6.42,2.67,4.67-.88,6.46-2.66c.22-.24.67-.77,1.35-1.58Z"/><path class="cls-1" d="M293.27,230.97h5.31v17.42c1.48-2.84,3.63-4.26,6.44-4.26s5.05,1.01,6.73,3.03c1.68,2.02,2.54,4.55,2.59,7.6v17.09h-5.29v-16.88c0-1.52-.43-2.81-1.29-3.89-.86-1.08-2.22-1.62-4.07-1.62-2.2,0-3.9,1.17-5.11,3.52v18.87h-5.31v-40.86Z"/><path class="cls-1" d="M327.28,268.56v12.11h-5.29v-35.12h5.29v2.38c2.55-3,5.52-4.49,8.91-4.49,4.02,0,7.44,1.42,10.28,4.25,2.83,2.83,4.25,6.26,4.25,10.28s-1.42,7.45-4.25,10.29c-2.83,2.84-6.26,4.26-10.28,4.26-3.39,0-6.36-1.32-8.91-3.96ZM327.28,255.92v4.11c.32,1.62,1.15,3.08,2.48,4.39,1.77,1.77,3.92,2.66,6.44,2.66s4.67-.89,6.45-2.67c1.78-1.78,2.67-3.93,2.67-6.45s-.89-4.65-2.67-6.44c-1.78-1.79-3.93-2.68-6.45-2.68s-4.67.89-6.44,2.68c-1.33,1.31-2.15,2.78-2.48,4.39Z"/><path class="cls-1" d="M362.42,230.95v40.89h-5.31v-40.89h5.31Z"/><path class="cls-1" d="M392.87,247.39v-1.84h5.31v26.3h-5.31v-3.29c-2.55,2.64-5.52,3.96-8.89,3.96-4.02,0-7.44-1.42-10.28-4.25-2.83-2.83-4.25-6.26-4.25-10.28s1.42-7.44,4.25-10.28c2.83-2.83,6.26-4.25,10.28-4.25,3.37,0,6.33,1.31,8.89,3.93ZM392.87,259.93v-3.88c-.31-1.65-1.12-3.15-2.45-4.49-1.79-1.77-3.93-2.66-6.44-2.66s-4.67.89-6.45,2.66c-1.78,1.77-2.67,3.92-2.67,6.44s.89,4.64,2.67,6.42c1.78,1.78,3.93,2.67,6.45,2.67s4.65-.89,6.44-2.66c1.33-1.34,2.15-2.84,2.45-4.5Z"/><path class="cls-1" d="M411.18,252.6v19.23h-5.31v-26.28h5.31v3.06c1.11-3,3.33-4.49,6.67-4.49,2.84,0,5.1,1.01,6.78,3.03,1.68,2.02,2.54,4.55,2.59,7.6v17.09h-5.29v-16.88c0-1.52-.55-2.81-1.66-3.89-1.11-1.08-2.43-1.62-3.96-1.62s-2.83.53-3.93,1.58c-.61.63-1.01,1.16-1.2,1.58Z"/><path class="cls-1" d="M443.13,265.88c.88.78,2.49,1.17,4.83,1.17,2.52,0,4.67-.88,6.46-2.66.22-.24.67-.77,1.35-1.58l5.29,1.89c-1.29,1.79-2.23,2.97-2.81,3.55-2.84,2.84-6.27,4.26-10.29,4.26s-7.42-1.42-10.27-4.26-4.26-6.27-4.26-10.29,1.42-7.45,4.26-10.29c2.84-2.84,6.27-4.27,10.27-4.27,3.44,0,6.45,1.04,9.04,3.12.43.36.84.74,1.25,1.15.17.17.66.71,1.46,1.61l-2.66,2.68-13.92,13.92ZM451.96,249.54c-.6-.46-1.93-.69-4.01-.69-2.5,0-4.64.89-6.42,2.67-1.78,1.78-2.67,3.93-2.67,6.45,0,2.06.23,3.4.69,4.01l12.41-12.44Z"/></svg>